solid wall_outlet (Meshed)
  facet normal 0.999762 0.021814 0.000000
    outer loop
      vertex 0.014486 0.000632 0.873000
      vertex 0.014500 -0.000000 0.873000
      vertex 0.014500 -0.000000 0.438000
    endloop
  endfacet
  facet normal 0.999762 0.021814 0.000000
    outer loop
      vertex 0.014486 0.000632 0.873000
      vertex 0.014500 -0.000000 0.438000
      vertex 0.014486 0.000632 0.438000
    endloop
  endfacet
  facet normal 0.997859 0.065403 0.000000
    outer loop
      vertex 0.014445 0.001264 0.873000
      vertex 0.014486 0.000632 0.873000
      vertex 0.014486 0.000632 0.438000
    endloop
  endfacet
  facet normal 0.997859 0.065403 0.000000
    outer loop
      vertex 0.014445 0.001264 0.873000
      vertex 0.014486 0.000632 0.438000
      vertex 0.014445 0.001264 0.438000
    endloop
  endfacet
  facet normal 0.994056 0.108868 0.000000
    outer loop
      vertex 0.014376 0.001893 0.873000
      vertex 0.014445 0.001264 0.873000
      vertex 0.014445 0.001264 0.438000
    endloop
  endfacet
  facet normal 0.994056 0.108868 0.000000
    outer loop
      vertex 0.014376 0.001893 0.873000
      vertex 0.014445 0.001264 0.438000
      vertex 0.014376 0.001893 0.438000
    endloop
  endfacet
  facet normal 0.988362 0.152124 0.000000
    outer loop
      vertex 0.014280 0.002518 0.873000
      vertex 0.014376 0.001893 0.873000
      vertex 0.014376 0.001893 0.438000
    endloop
  endfacet
  facet normal 0.988362 0.152124 0.000000
    outer loop
      vertex 0.014280 0.002518 0.873000
      vertex 0.014376 0.001893 0.438000
      vertex 0.014280 0.002518 0.438000
    endloop
  endfacet
  facet normal 0.980785 0.195090 0.000000
    outer loop
      vertex 0.014156 0.003138 0.873000
      vertex 0.014280 0.002518 0.873000
      vertex 0.014280 0.002518 0.438000
    endloop
  endfacet
  facet normal 0.980785 0.195090 0.000000
    outer loop
      vertex 0.014156 0.003138 0.873000
      vertex 0.014280 0.002518 0.438000
      vertex 0.014156 0.003138 0.438000
    endloop
  endfacet
  facet normal 0.971342 0.237686 0.000000
    outer loop
      vertex 0.014006 0.003753 0.873000
      vertex 0.014156 0.003138 0.873000
      vertex 0.014156 0.003138 0.438000
    endloop
  endfacet
  facet normal 0.971342 0.237686 0.000000
    outer loop
      vertex 0.014006 0.003753 0.873000
      vertex 0.014156 0.003138 0.438000
      vertex 0.014006 0.003753 0.438000
    endloop
  endfacet
  facet normal 0.960050 0.279829 0.000000
    outer loop
      vertex 0.013829 0.004360 0.873000
      vertex 0.014006 0.003753 0.873000
      vertex 0.014006 0.003753 0.438000
    endloop
  endfacet
  facet normal 0.960050 0.279829 0.000000
    outer loop
      vertex 0.013829 0.004360 0.873000
      vertex 0.014006 0.003753 0.438000
      vertex 0.013829 0.004360 0.438000
    endloop
  endfacet
  facet normal 0.946930 0.321440 0.000000
    outer loop
      vertex 0.013626 0.004959 0.873000
      vertex 0.013829 0.004360 0.873000
      vertex 0.013829 0.004360 0.438000
    endloop
  endfacet
  facet normal 0.946930 0.321440 0.000000
    outer loop
      vertex 0.013626 0.004959 0.873000
      vertex 0.013829 0.004360 0.438000
      vertex 0.013626 0.004959 0.438000
    endloop
  endfacet
  facet normal 0.932008 0.362438 0.000000
    outer loop
      vertex 0.013396 0.005549 0.873000
      vertex 0.013626 0.004959 0.873000
      vertex 0.013626 0.004959 0.438000
    endloop
  endfacet
  facet normal 0.932008 0.362438 0.000000
    outer loop
      vertex 0.013396 0.005549 0.873000
      vertex 0.013626 0.004959 0.438000
      vertex 0.013396 0.005549 0.438000
    endloop
  endfacet
  facet normal 0.915312 0.402747 0.000000
    outer loop
      vertex 0.013141 0.006128 0.873000
      vertex 0.013396 0.005549 0.873000
      vertex 0.013396 0.005549 0.438000
    endloop
  endfacet
  facet normal 0.915312 0.402747 0.000000
    outer loop
      vertex 0.013141 0.006128 0.873000
      vertex 0.013396 0.005549 0.438000
      vertex 0.013141 0.006128 0.438000
    endloop
  endfacet
  facet normal 0.896873 0.442288 0.000000
    outer loop
      vertex 0.012862 0.006695 0.873000
      vertex 0.013141 0.006128 0.873000
      vertex 0.013141 0.006128 0.438000
    endloop
  endfacet
  facet normal 0.896873 0.442288 0.000000
    outer loop
      vertex 0.012862 0.006695 0.873000
      vertex 0.013141 0.006128 0.438000
      vertex 0.012862 0.006695 0.438000
    endloop
  endfacet
  facet normal 0.876727 0.480988 0.000000
    outer loop
      vertex 0.012557 0.007250 0.873000
      vertex 0.012862 0.006695 0.873000
      vertex 0.012862 0.006695 0.438000
    endloop
  endfacet
  facet normal 0.876727 0.480988 0.000000
    outer loop
      vertex 0.012557 0.007250 0.873000
      vertex 0.012862 0.006695 0.438000
      vertex 0.012557 0.007250 0.438000
    endloop
  endfacet
  facet normal 0.854912 0.518773 0.000000
    outer loop
      vertex 0.012229 0.007791 0.873000
      vertex 0.012557 0.007250 0.873000
      vertex 0.012557 0.007250 0.438000
    endloop
  endfacet
  facet normal 0.854912 0.518773 0.000000
    outer loop
      vertex 0.012229 0.007791 0.873000
      vertex 0.012557 0.007250 0.438000
      vertex 0.012229 0.007791 0.438000
    endloop
  endfacet
  facet normal 0.831469 0.555571 0.000000
    outer loop
      vertex 0.011878 0.008317 0.873000
      vertex 0.012229 0.007791 0.873000
      vertex 0.012229 0.007791 0.438000
    endloop
  endfacet
  facet normal 0.831469 0.555571 0.000000
    outer loop
      vertex 0.011878 0.008317 0.873000
      vertex 0.012229 0.007791 0.438000
      vertex 0.011878 0.008317 0.438000
    endloop
  endfacet
  facet normal 0.806445 0.591309 0.000000
    outer loop
      vertex 0.011504 0.008827 0.873000
      vertex 0.011878 0.008317 0.873000
      vertex 0.011878 0.008317 0.438000
    endloop
  endfacet
  facet normal 0.806445 0.591309 0.000000
    outer loop
      vertex 0.011504 0.008827 0.873000
      vertex 0.011878 0.008317 0.438000
      vertex 0.011504 0.008827 0.438000
    endloop
  endfacet
  facet normal 0.779884 0.625924 0.000000
    outer loop
      vertex 0.011108 0.009320 0.873000
      vertex 0.011504 0.008827 0.873000
      vertex 0.011504 0.008827 0.438000
    endloop
  endfacet
  facet normal 0.779884 0.625924 0.000000
    outer loop
      vertex 0.011108 0.009320 0.873000
      vertex 0.011504 0.008827 0.438000
      vertex 0.011108 0.009320 0.438000
    endloop
  endfacet
  facet normal 0.751840 0.659345 0.000000
    outer loop
      vertex 0.010691 0.009796 0.873000
      vertex 0.011108 0.009320 0.438000
      vertex 0.010691 0.009796 0.438000
    endloop
  endfacet
  facet normal 0.751840 0.659345 0.000000
    outer loop
      vertex 0.010691 0.009796 0.873000
      vertex 0.011108 0.009320 0.873000
      vertex 0.011108 0.009320 0.438000
    endloop
  endfacet
  facet normal 0.722364 0.691513 0.000000
    outer loop
      vertex 0.010253 0.010253 0.873000
      vertex 0.010691 0.009796 0.438000
      vertex 0.010253 0.010253 0.438000
    endloop
  endfacet
  facet normal 0.722364 0.691513 0.000000
    outer loop
      vertex 0.010253 0.010253 0.873000
      vertex 0.010691 0.009796 0.873000
      vertex 0.010691 0.009796 0.438000
    endloop
  endfacet
  facet normal 0.691513 0.722364 0.000000
    outer loop
      vertex 0.010253 0.010253 0.438000
      vertex 0.009796 0.010691 0.438000
      vertex 0.009796 0.010691 0.873000
    endloop
  endfacet
  facet normal 0.691513 0.722364 -0.000000
    outer loop
      vertex 0.010253 0.010253 0.438000
      vertex 0.009796 0.010691 0.873000
      vertex 0.010253 0.010253 0.873000
    endloop
  endfacet
  facet normal 0.659345 0.751840 0.000000
    outer loop
      vertex 0.009796 0.010691 0.438000
      vertex 0.009320 0.011108 0.438000
      vertex 0.009320 0.011108 0.873000
    endloop
  endfacet
  facet normal 0.659345 0.751840 -0.000000
    outer loop
      vertex 0.009796 0.010691 0.438000
      vertex 0.009320 0.011108 0.873000
      vertex 0.009796 0.010691 0.873000
    endloop
  endfacet
  facet normal 0.625924 0.779884 0.000000
    outer loop
      vertex 0.009320 0.011108 0.438000
      vertex 0.008827 0.011504 0.438000
      vertex 0.008827 0.011504 0.873000
    endloop
  endfacet
  facet normal 0.625924 0.779884 -0.000000
    outer loop
      vertex 0.009320 0.011108 0.438000
      vertex 0.008827 0.011504 0.873000
      vertex 0.009320 0.011108 0.873000
    endloop
  endfacet
  facet normal 0.591309 0.806445 0.000000
    outer loop
      vertex 0.008827 0.011504 0.438000
      vertex 0.008317 0.011878 0.438000
      vertex 0.008317 0.011878 0.873000
    endloop
  endfacet
  facet normal 0.591309 0.806445 -0.000000
    outer loop
      vertex 0.008827 0.011504 0.438000
      vertex 0.008317 0.011878 0.873000
      vertex 0.008827 0.011504 0.873000
    endloop
  endfacet
  facet normal 0.555571 0.831469 0.000000
    outer loop
      vertex 0.008317 0.011878 0.438000
      vertex 0.007791 0.012229 0.438000
      vertex 0.007791 0.012229 0.873000
    endloop
  endfacet
  facet normal 0.555571 0.831469 -0.000000
    outer loop
      vertex 0.008317 0.011878 0.438000
      vertex 0.007791 0.012229 0.873000
      vertex 0.008317 0.011878 0.873000
    endloop
  endfacet
  facet normal 0.518773 0.854912 0.000000
    outer loop
      vertex 0.007791 0.012229 0.438000
      vertex 0.007250 0.012557 0.438000
      vertex 0.007250 0.012557 0.873000
    endloop
  endfacet
  facet normal 0.518773 0.854912 -0.000000
    outer loop
      vertex 0.007791 0.012229 0.438000
      vertex 0.007250 0.012557 0.873000
      vertex 0.007791 0.012229 0.873000
    endloop
  endfacet
  facet normal 0.480988 0.876727 0.000000
    outer loop
      vertex 0.007250 0.012557 0.438000
      vertex 0.006695 0.012862 0.438000
      vertex 0.006695 0.012862 0.873000
    endloop
  endfacet
  facet normal 0.480988 0.876727 -0.000000
    outer loop
      vertex 0.007250 0.012557 0.438000
      vertex 0.006695 0.012862 0.873000
      vertex 0.007250 0.012557 0.873000
    endloop
  endfacet
  facet normal 0.442288 0.896873 0.000000
    outer loop
      vertex 0.006695 0.012862 0.438000
      vertex 0.006128 0.013141 0.438000
      vertex 0.006128 0.013141 0.873000
    endloop
  endfacet
  facet normal 0.442288 0.896873 -0.000000
    outer loop
      vertex 0.006695 0.012862 0.438000
      vertex 0.006128 0.013141 0.873000
      vertex 0.006695 0.012862 0.873000
    endloop
  endfacet
  facet normal 0.402747 0.915312 0.000000
    outer loop
      vertex 0.006128 0.013141 0.438000
      vertex 0.005549 0.013396 0.438000
      vertex 0.005549 0.013396 0.873000
    endloop
  endfacet
  facet normal 0.402747 0.915312 -0.000000
    outer loop
      vertex 0.006128 0.013141 0.438000
      vertex 0.005549 0.013396 0.873000
      vertex 0.006128 0.013141 0.873000
    endloop
  endfacet
  facet normal 0.362438 0.932008 -0.000000
    outer loop
      vertex 0.005549 0.013396 0.438000
      vertex 0.004959 0.013626 0.873000
      vertex 0.005549 0.013396 0.873000
    endloop
  endfacet
  facet normal 0.362438 0.932008 0.000000
    outer loop
      vertex 0.005549 0.013396 0.438000
      vertex 0.004959 0.013626 0.438000
      vertex 0.004959 0.013626 0.873000
    endloop
  endfacet
  facet normal 0.321440 0.946930 -0.000000
    outer loop
      vertex 0.004959 0.013626 0.438000
      vertex 0.004360 0.013829 0.873000
      vertex 0.004959 0.013626 0.873000
    endloop
  endfacet
  facet normal 0.321440 0.946930 0.000000
    outer loop
      vertex 0.004959 0.013626 0.438000
      vertex 0.004360 0.013829 0.438000
      vertex 0.004360 0.013829 0.873000
    endloop
  endfacet
  facet normal 0.279829 0.960050 -0.000000
    outer loop
      vertex 0.004360 0.013829 0.438000
      vertex 0.003753 0.014006 0.873000
      vertex 0.004360 0.013829 0.873000
    endloop
  endfacet
  facet normal 0.279829 0.960050 0.000000
    outer loop
      vertex 0.004360 0.013829 0.438000
      vertex 0.003753 0.014006 0.438000
      vertex 0.003753 0.014006 0.873000
    endloop
  endfacet
  facet normal 0.237686 0.971342 0.000000
    outer loop
      vertex 0.003753 0.014006 0.438000
      vertex 0.003138 0.014156 0.438000
      vertex 0.003138 0.014156 0.873000
    endloop
  endfacet
  facet normal 0.237686 0.971342 -0.000000
    outer loop
      vertex 0.003753 0.014006 0.438000
      vertex 0.003138 0.014156 0.873000
      vertex 0.003753 0.014006 0.873000
    endloop
  endfacet
  facet normal 0.195090 0.980785 -0.000000
    outer loop
      vertex 0.003138 0.014156 0.438000
      vertex 0.002518 0.014280 0.873000
      vertex 0.003138 0.014156 0.873000
    endloop
  endfacet
  facet normal 0.195090 0.980785 0.000000
    outer loop
      vertex 0.003138 0.014156 0.438000
      vertex 0.002518 0.014280 0.438000
      vertex 0.002518 0.014280 0.873000
    endloop
  endfacet
  facet normal 0.152124 0.988362 -0.000000
    outer loop
      vertex 0.002518 0.014280 0.438000
      vertex 0.001893 0.014376 0.873000
      vertex 0.002518 0.014280 0.873000
    endloop
  endfacet
  facet normal 0.152124 0.988362 0.000000
    outer loop
      vertex 0.002518 0.014280 0.438000
      vertex 0.001893 0.014376 0.438000
      vertex 0.001893 0.014376 0.873000
    endloop
  endfacet
  facet normal 0.108868 0.994056 0.000000
    outer loop
      vertex 0.001893 0.014376 0.438000
      vertex 0.001264 0.014445 0.438000
      vertex 0.001264 0.014445 0.873000
    endloop
  endfacet
  facet normal 0.108868 0.994056 -0.000000
    outer loop
      vertex 0.001893 0.014376 0.438000
      vertex 0.001264 0.014445 0.873000
      vertex 0.001893 0.014376 0.873000
    endloop
  endfacet
  facet normal 0.065403 0.997859 -0.000000
    outer loop
      vertex 0.001264 0.014445 0.438000
      vertex 0.000632 0.014486 0.873000
      vertex 0.001264 0.014445 0.873000
    endloop
  endfacet
  facet normal 0.065403 0.997859 0.000000
    outer loop
      vertex 0.001264 0.014445 0.438000
      vertex 0.000632 0.014486 0.438000
      vertex 0.000632 0.014486 0.873000
    endloop
  endfacet
  facet normal 0.021814 0.999762 0.000000
    outer loop
      vertex 0.000632 0.014486 0.438000
      vertex 0.000000 0.014500 0.438000
      vertex 0.000000 0.014500 0.873000
    endloop
  endfacet
  facet normal 0.021814 0.999762 -0.000000
    outer loop
      vertex 0.000632 0.014486 0.438000
      vertex 0.000000 0.014500 0.873000
      vertex 0.000632 0.014486 0.873000
    endloop
  endfacet
  facet normal -0.021814 0.999762 0.000000
    outer loop
      vertex 0.000000 0.014500 0.438000
      vertex -0.000632 0.014486 0.873000
      vertex 0.000000 0.014500 0.873000
    endloop
  endfacet
  facet normal -0.021814 0.999762 0.000000
    outer loop
      vertex 0.000000 0.014500 0.438000
      vertex -0.000632 0.014486 0.438000
      vertex -0.000632 0.014486 0.873000
    endloop
  endfacet
  facet normal -0.065403 0.997859 0.000000
    outer loop
      vertex -0.000632 0.014486 0.438000
      vertex -0.001264 0.014445 0.438000
      vertex -0.001264 0.014445 0.873000
    endloop
  endfacet
  facet normal -0.065403 0.997859 0.000000
    outer loop
      vertex -0.000632 0.014486 0.438000
      vertex -0.001264 0.014445 0.873000
      vertex -0.000632 0.014486 0.873000
    endloop
  endfacet
  facet normal -0.108868 0.994056 0.000000
    outer loop
      vertex -0.001264 0.014445 0.438000
      vertex -0.001893 0.014376 0.873000
      vertex -0.001264 0.014445 0.873000
    endloop
  endfacet
  facet normal -0.108868 0.994056 0.000000
    outer loop
      vertex -0.001264 0.014445 0.438000
      vertex -0.001893 0.014376 0.438000
      vertex -0.001893 0.014376 0.873000
    endloop
  endfacet
  facet normal -0.152124 0.988362 0.000000
    outer loop
      vertex -0.001893 0.014376 0.438000
      vertex -0.002518 0.014280 0.438000
      vertex -0.002518 0.014280 0.873000
    endloop
  endfacet
  facet normal -0.152124 0.988362 0.000000
    outer loop
      vertex -0.001893 0.014376 0.438000
      vertex -0.002518 0.014280 0.873000
      vertex -0.001893 0.014376 0.873000
    endloop
  endfacet
  facet normal -0.195090 0.980785 0.000000
    outer loop
      vertex -0.002518 0.014280 0.438000
      vertex -0.003138 0.014156 0.873000
      vertex -0.002518 0.014280 0.873000
    endloop
  endfacet
  facet normal -0.195090 0.980785 0.000000
    outer loop
      vertex -0.002518 0.014280 0.438000
      vertex -0.003138 0.014156 0.438000
      vertex -0.003138 0.014156 0.873000
    endloop
  endfacet
  facet normal -0.237686 0.971342 0.000000
    outer loop
      vertex -0.003138 0.014156 0.438000
      vertex -0.003753 0.014006 0.438000
      vertex -0.003753 0.014006 0.873000
    endloop
  endfacet
  facet normal -0.237686 0.971342 0.000000
    outer loop
      vertex -0.003138 0.014156 0.438000
      vertex -0.003753 0.014006 0.873000
      vertex -0.003138 0.014156 0.873000
    endloop
  endfacet
  facet normal -0.279829 0.960050 0.000000
    outer loop
      vertex -0.003753 0.014006 0.438000
      vertex -0.004360 0.013829 0.438000
      vertex -0.004360 0.013829 0.873000
    endloop
  endfacet
  facet normal -0.279829 0.960050 0.000000
    outer loop
      vertex -0.003753 0.014006 0.438000
      vertex -0.004360 0.013829 0.873000
      vertex -0.003753 0.014006 0.873000
    endloop
  endfacet
  facet normal -0.321440 0.946930 0.000000
    outer loop
      vertex -0.004360 0.013829 0.438000
      vertex -0.004959 0.013626 0.873000
      vertex -0.004360 0.013829 0.873000
    endloop
  endfacet
  facet normal -0.321440 0.946930 0.000000
    outer loop
      vertex -0.004360 0.013829 0.438000
      vertex -0.004959 0.013626 0.438000
      vertex -0.004959 0.013626 0.873000
    endloop
  endfacet
  facet normal -0.362438 0.932008 0.000000
    outer loop
      vertex -0.004959 0.013626 0.438000
      vertex -0.005549 0.013396 0.873000
      vertex -0.004959 0.013626 0.873000
    endloop
  endfacet
  facet normal -0.362438 0.932008 0.000000
    outer loop
      vertex -0.004959 0.013626 0.438000
      vertex -0.005549 0.013396 0.438000
      vertex -0.005549 0.013396 0.873000
    endloop
  endfacet
  facet normal -0.402747 0.915312 0.000000
    outer loop
      vertex -0.005549 0.013396 0.438000
      vertex -0.006128 0.013141 0.438000
      vertex -0.006128 0.013141 0.873000
    endloop
  endfacet
  facet normal -0.402747 0.915312 0.000000
    outer loop
      vertex -0.005549 0.013396 0.438000
      vertex -0.006128 0.013141 0.873000
      vertex -0.005549 0.013396 0.873000
    endloop
  endfacet
  facet normal -0.442288 0.896873 0.000000
    outer loop
      vertex -0.006128 0.013141 0.438000
      vertex -0.006695 0.012862 0.438000
      vertex -0.006695 0.012862 0.873000
    endloop
  endfacet
  facet normal -0.442288 0.896873 0.000000
    outer loop
      vertex -0.006128 0.013141 0.438000
      vertex -0.006695 0.012862 0.873000
      vertex -0.006128 0.013141 0.873000
    endloop
  endfacet
  facet normal -0.480988 0.876727 0.000000
    outer loop
      vertex -0.006695 0.012862 0.438000
      vertex -0.007250 0.012557 0.873000
      vertex -0.006695 0.012862 0.873000
    endloop
  endfacet
  facet normal -0.480988 0.876727 0.000000
    outer loop
      vertex -0.006695 0.012862 0.438000
      vertex -0.007250 0.012557 0.438000
      vertex -0.007250 0.012557 0.873000
    endloop
  endfacet
  facet normal -0.518773 0.854912 0.000000
    outer loop
      vertex -0.007250 0.012557 0.438000
      vertex -0.007791 0.012229 0.873000
      vertex -0.007250 0.012557 0.873000
    endloop
  endfacet
  facet normal -0.518773 0.854912 0.000000
    outer loop
      vertex -0.007250 0.012557 0.438000
      vertex -0.007791 0.012229 0.438000
      vertex -0.007791 0.012229 0.873000
    endloop
  endfacet
  facet normal -0.555571 0.831469 0.000000
    outer loop
      vertex -0.007791 0.012229 0.438000
      vertex -0.008317 0.011878 0.438000
      vertex -0.008317 0.011878 0.873000
    endloop
  endfacet
  facet normal -0.555571 0.831469 0.000000
    outer loop
      vertex -0.007791 0.012229 0.438000
      vertex -0.008317 0.011878 0.873000
      vertex -0.007791 0.012229 0.873000
    endloop
  endfacet
  facet normal -0.591309 0.806445 0.000000
    outer loop
      vertex -0.008317 0.011878 0.438000
      vertex -0.008827 0.011504 0.438000
      vertex -0.008827 0.011504 0.873000
    endloop
  endfacet
  facet normal -0.591309 0.806445 0.000000
    outer loop
      vertex -0.008317 0.011878 0.438000
      vertex -0.008827 0.011504 0.873000
      vertex -0.008317 0.011878 0.873000
    endloop
  endfacet
  facet normal -0.625924 0.779884 0.000000
    outer loop
      vertex -0.008827 0.011504 0.438000
      vertex -0.009320 0.011108 0.438000
      vertex -0.009320 0.011108 0.873000
    endloop
  endfacet
  facet normal -0.625924 0.779884 0.000000
    outer loop
      vertex -0.008827 0.011504 0.438000
      vertex -0.009320 0.011108 0.873000
      vertex -0.008827 0.011504 0.873000
    endloop
  endfacet
  facet normal -0.659345 0.751840 0.000000
    outer loop
      vertex -0.009320 0.011108 0.438000
      vertex -0.009796 0.010691 0.873000
      vertex -0.009320 0.011108 0.873000
    endloop
  endfacet
  facet normal -0.659345 0.751840 0.000000
    outer loop
      vertex -0.009320 0.011108 0.438000
      vertex -0.009796 0.010691 0.438000
      vertex -0.009796 0.010691 0.873000
    endloop
  endfacet
  facet normal -0.691513 0.722364 0.000000
    outer loop
      vertex -0.009796 0.010691 0.438000
      vertex -0.010253 0.010253 0.438000
      vertex -0.010253 0.010253 0.873000
    endloop
  endfacet
  facet normal -0.691513 0.722364 0.000000
    outer loop
      vertex -0.009796 0.010691 0.438000
      vertex -0.010253 0.010253 0.873000
      vertex -0.009796 0.010691 0.873000
    endloop
  endfacet
  facet normal -0.722364 0.691513 0.000000
    outer loop
      vertex -0.010691 0.009796 0.873000
      vertex -0.010253 0.010253 0.873000
      vertex -0.010253 0.010253 0.438000
    endloop
  endfacet
  facet normal -0.722364 0.691513 0.000000
    outer loop
      vertex -0.010691 0.009796 0.873000
      vertex -0.010253 0.010253 0.438000
      vertex -0.010691 0.009796 0.438000
    endloop
  endfacet
  facet normal -0.751840 0.659345 0.000000
    outer loop
      vertex -0.011108 0.009320 0.873000
      vertex -0.010691 0.009796 0.873000
      vertex -0.010691 0.009796 0.438000
    endloop
  endfacet
  facet normal -0.751840 0.659345 0.000000
    outer loop
      vertex -0.011108 0.009320 0.873000
      vertex -0.010691 0.009796 0.438000
      vertex -0.011108 0.009320 0.438000
    endloop
  endfacet
  facet normal -0.779884 0.625924 0.000000
    outer loop
      vertex -0.011504 0.008827 0.873000
      vertex -0.011108 0.009320 0.873000
      vertex -0.011108 0.009320 0.438000
    endloop
  endfacet
  facet normal -0.779884 0.625924 0.000000
    outer loop
      vertex -0.011504 0.008827 0.873000
      vertex -0.011108 0.009320 0.438000
      vertex -0.011504 0.008827 0.438000
    endloop
  endfacet
  facet normal -0.806445 0.591309 0.000000
    outer loop
      vertex -0.011878 0.008317 0.873000
      vertex -0.011504 0.008827 0.438000
      vertex -0.011878 0.008317 0.438000
    endloop
  endfacet
  facet normal -0.806445 0.591309 0.000000
    outer loop
      vertex -0.011878 0.008317 0.873000
      vertex -0.011504 0.008827 0.873000
      vertex -0.011504 0.008827 0.438000
    endloop
  endfacet
  facet normal -0.831469 0.555571 0.000000
    outer loop
      vertex -0.012229 0.007791 0.873000
      vertex -0.011878 0.008317 0.438000
      vertex -0.012229 0.007791 0.438000
    endloop
  endfacet
  facet normal -0.831469 0.555571 0.000000
    outer loop
      vertex -0.012229 0.007791 0.873000
      vertex -0.011878 0.008317 0.873000
      vertex -0.011878 0.008317 0.438000
    endloop
  endfacet
  facet normal -0.854912 0.518773 0.000000
    outer loop
      vertex -0.012557 0.007250 0.873000
      vertex -0.012229 0.007791 0.438000
      vertex -0.012557 0.007250 0.438000
    endloop
  endfacet
  facet normal -0.854912 0.518773 0.000000
    outer loop
      vertex -0.012557 0.007250 0.873000
      vertex -0.012229 0.007791 0.873000
      vertex -0.012229 0.007791 0.438000
    endloop
  endfacet
  facet normal -0.876727 0.480988 0.000000
    outer loop
      vertex -0.012862 0.006695 0.873000
      vertex -0.012557 0.007250 0.873000
      vertex -0.012557 0.007250 0.438000
    endloop
  endfacet
  facet normal -0.876727 0.480988 0.000000
    outer loop
      vertex -0.012862 0.006695 0.873000
      vertex -0.012557 0.007250 0.438000
      vertex -0.012862 0.006695 0.438000
    endloop
  endfacet
  facet normal -0.896873 0.442288 0.000000
    outer loop
      vertex -0.013141 0.006128 0.873000
      vertex -0.012862 0.006695 0.438000
      vertex -0.013141 0.006128 0.438000
    endloop
  endfacet
  facet normal -0.896873 0.442288 0.000000
    outer loop
      vertex -0.013141 0.006128 0.873000
      vertex -0.012862 0.006695 0.873000
      vertex -0.012862 0.006695 0.438000
    endloop
  endfacet
  facet normal -0.915312 0.402747 0.000000
    outer loop
      vertex -0.013396 0.005549 0.873000
      vertex -0.013141 0.006128 0.438000
      vertex -0.013396 0.005549 0.438000
    endloop
  endfacet
  facet normal -0.915312 0.402747 0.000000
    outer loop
      vertex -0.013396 0.005549 0.873000
      vertex -0.013141 0.006128 0.873000
      vertex -0.013141 0.006128 0.438000
    endloop
  endfacet
  facet normal -0.932008 0.362438 0.000000
    outer loop
      vertex -0.013626 0.004959 0.873000
      vertex -0.013396 0.005549 0.438000
      vertex -0.013626 0.004959 0.438000
    endloop
  endfacet
  facet normal -0.932008 0.362438 0.000000
    outer loop
      vertex -0.013626 0.004959 0.873000
      vertex -0.013396 0.005549 0.873000
      vertex -0.013396 0.005549 0.438000
    endloop
  endfacet
  facet normal -0.946930 0.321440 0.000000
    outer loop
      vertex -0.013829 0.004360 0.873000
      vertex -0.013626 0.004959 0.873000
      vertex -0.013626 0.004959 0.438000
    endloop
  endfacet
  facet normal -0.946930 0.321440 0.000000
    outer loop
      vertex -0.013829 0.004360 0.873000
      vertex -0.013626 0.004959 0.438000
      vertex -0.013829 0.004360 0.438000
    endloop
  endfacet
  facet normal -0.960050 0.279829 0.000000
    outer loop
      vertex -0.014006 0.003753 0.873000
      vertex -0.013829 0.004360 0.873000
      vertex -0.013829 0.004360 0.438000
    endloop
  endfacet
  facet normal -0.960050 0.279829 0.000000
    outer loop
      vertex -0.014006 0.003753 0.873000
      vertex -0.013829 0.004360 0.438000
      vertex -0.014006 0.003753 0.438000
    endloop
  endfacet
  facet normal -0.971342 0.237686 0.000000
    outer loop
      vertex -0.014156 0.003138 0.873000
      vertex -0.014006 0.003753 0.438000
      vertex -0.014156 0.003138 0.438000
    endloop
  endfacet
  facet normal -0.971342 0.237686 0.000000
    outer loop
      vertex -0.014156 0.003138 0.873000
      vertex -0.014006 0.003753 0.873000
      vertex -0.014006 0.003753 0.438000
    endloop
  endfacet
  facet normal -0.980785 0.195090 0.000000
    outer loop
      vertex -0.014280 0.002518 0.873000
      vertex -0.014156 0.003138 0.873000
      vertex -0.014156 0.003138 0.438000
    endloop
  endfacet
  facet normal -0.980785 0.195090 0.000000
    outer loop
      vertex -0.014280 0.002518 0.873000
      vertex -0.014156 0.003138 0.438000
      vertex -0.014280 0.002518 0.438000
    endloop
  endfacet
  facet normal -0.988362 0.152124 0.000000
    outer loop
      vertex -0.014376 0.001893 0.873000
      vertex -0.014280 0.002518 0.873000
      vertex -0.014280 0.002518 0.438000
    endloop
  endfacet
  facet normal -0.988362 0.152124 0.000000
    outer loop
      vertex -0.014376 0.001893 0.873000
      vertex -0.014280 0.002518 0.438000
      vertex -0.014376 0.001893 0.438000
    endloop
  endfacet
  facet normal -0.994056 0.108868 0.000000
    outer loop
      vertex -0.014445 0.001264 0.873000
      vertex -0.014376 0.001893 0.438000
      vertex -0.014445 0.001264 0.438000
    endloop
  endfacet
  facet normal -0.994056 0.108868 0.000000
    outer loop
      vertex -0.014445 0.001264 0.873000
      vertex -0.014376 0.001893 0.873000
      vertex -0.014376 0.001893 0.438000
    endloop
  endfacet
  facet normal -0.997859 0.065403 0.000000
    outer loop
      vertex -0.014486 0.000632 0.873000
      vertex -0.014445 0.001264 0.873000
      vertex -0.014445 0.001264 0.438000
    endloop
  endfacet
  facet normal -0.997859 0.065403 0.000000
    outer loop
      vertex -0.014486 0.000632 0.873000
      vertex -0.014445 0.001264 0.438000
      vertex -0.014486 0.000632 0.438000
    endloop
  endfacet
  facet normal -0.999762 0.021814 0.000000
    outer loop
      vertex -0.014500 0.000000 0.873000
      vertex -0.014486 0.000632 0.873000
      vertex -0.014486 0.000632 0.438000
    endloop
  endfacet
  facet normal -0.999762 0.021814 0.000000
    outer loop
      vertex -0.014500 0.000000 0.873000
      vertex -0.014486 0.000632 0.438000
      vertex -0.014500 0.000000 0.438000
    endloop
  endfacet
  facet normal -0.999762 -0.021814 -0.000000
    outer loop
      vertex -0.014486 -0.000632 0.873000
      vertex -0.014500 0.000000 0.438000
      vertex -0.014486 -0.000632 0.438000
    endloop
  endfacet
  facet normal -0.999762 -0.021814 0.000000
    outer loop
      vertex -0.014486 -0.000632 0.873000
      vertex -0.014500 0.000000 0.873000
      vertex -0.014500 0.000000 0.438000
    endloop
  endfacet
  facet normal -0.997859 -0.065403 -0.000000
    outer loop
      vertex -0.014445 -0.001264 0.873000
      vertex -0.014486 -0.000632 0.438000
      vertex -0.014445 -0.001264 0.438000
    endloop
  endfacet
  facet normal -0.997859 -0.065403 0.000000
    outer loop
      vertex -0.014445 -0.001264 0.873000
      vertex -0.014486 -0.000632 0.873000
      vertex -0.014486 -0.000632 0.438000
    endloop
  endfacet
  facet normal -0.994056 -0.108868 -0.000000
    outer loop
      vertex -0.014376 -0.001893 0.873000
      vertex -0.014445 -0.001264 0.438000
      vertex -0.014376 -0.001893 0.438000
    endloop
  endfacet
  facet normal -0.994056 -0.108868 0.000000
    outer loop
      vertex -0.014376 -0.001893 0.873000
      vertex -0.014445 -0.001264 0.873000
      vertex -0.014445 -0.001264 0.438000
    endloop
  endfacet
  facet normal -0.988362 -0.152124 -0.000000
    outer loop
      vertex -0.014280 -0.002518 0.873000
      vertex -0.014376 -0.001893 0.438000
      vertex -0.014280 -0.002518 0.438000
    endloop
  endfacet
  facet normal -0.988362 -0.152124 0.000000
    outer loop
      vertex -0.014280 -0.002518 0.873000
      vertex -0.014376 -0.001893 0.873000
      vertex -0.014376 -0.001893 0.438000
    endloop
  endfacet
  facet normal -0.980785 -0.195090 -0.000000
    outer loop
      vertex -0.014156 -0.003138 0.873000
      vertex -0.014280 -0.002518 0.438000
      vertex -0.014156 -0.003138 0.438000
    endloop
  endfacet
  facet normal -0.980785 -0.195090 0.000000
    outer loop
      vertex -0.014156 -0.003138 0.873000
      vertex -0.014280 -0.002518 0.873000
      vertex -0.014280 -0.002518 0.438000
    endloop
  endfacet
  facet normal -0.971342 -0.237686 -0.000000
    outer loop
      vertex -0.014006 -0.003753 0.873000
      vertex -0.014156 -0.003138 0.438000
      vertex -0.014006 -0.003753 0.438000
    endloop
  endfacet
  facet normal -0.971342 -0.237686 0.000000
    outer loop
      vertex -0.014006 -0.003753 0.873000
      vertex -0.014156 -0.003138 0.873000
      vertex -0.014156 -0.003138 0.438000
    endloop
  endfacet
  facet normal -0.960050 -0.279829 0.000000
    outer loop
      vertex -0.013829 -0.004360 0.873000
      vertex -0.014006 -0.003753 0.873000
      vertex -0.014006 -0.003753 0.438000
    endloop
  endfacet
  facet normal -0.960050 -0.279829 -0.000000
    outer loop
      vertex -0.013829 -0.004360 0.873000
      vertex -0.014006 -0.003753 0.438000
      vertex -0.013829 -0.004360 0.438000
    endloop
  endfacet
  facet normal -0.946930 -0.321440 0.000000
    outer loop
      vertex -0.013626 -0.004959 0.873000
      vertex -0.013829 -0.004360 0.873000
      vertex -0.013829 -0.004360 0.438000
    endloop
  endfacet
  facet normal -0.946930 -0.321440 -0.000000
    outer loop
      vertex -0.013626 -0.004959 0.873000
      vertex -0.013829 -0.004360 0.438000
      vertex -0.013626 -0.004959 0.438000
    endloop
  endfacet
  facet normal -0.932008 -0.362438 0.000000
    outer loop
      vertex -0.013396 -0.005549 0.873000
      vertex -0.013626 -0.004959 0.873000
      vertex -0.013626 -0.004959 0.438000
    endloop
  endfacet
  facet normal -0.932008 -0.362438 -0.000000
    outer loop
      vertex -0.013396 -0.005549 0.873000
      vertex -0.013626 -0.004959 0.438000
      vertex -0.013396 -0.005549 0.438000
    endloop
  endfacet
  facet normal -0.915312 -0.402747 0.000000
    outer loop
      vertex -0.013141 -0.006128 0.873000
      vertex -0.013396 -0.005549 0.873000
      vertex -0.013396 -0.005549 0.438000
    endloop
  endfacet
  facet normal -0.915312 -0.402747 -0.000000
    outer loop
      vertex -0.013141 -0.006128 0.873000
      vertex -0.013396 -0.005549 0.438000
      vertex -0.013141 -0.006128 0.438000
    endloop
  endfacet
  facet normal -0.896873 -0.442288 0.000000
    outer loop
      vertex -0.012862 -0.006695 0.873000
      vertex -0.013141 -0.006128 0.873000
      vertex -0.013141 -0.006128 0.438000
    endloop
  endfacet
  facet normal -0.896873 -0.442288 -0.000000
    outer loop
      vertex -0.012862 -0.006695 0.873000
      vertex -0.013141 -0.006128 0.438000
      vertex -0.012862 -0.006695 0.438000
    endloop
  endfacet
  facet normal -0.876727 -0.480988 0.000000
    outer loop
      vertex -0.012557 -0.007250 0.873000
      vertex -0.012862 -0.006695 0.873000
      vertex -0.012862 -0.006695 0.438000
    endloop
  endfacet
  facet normal -0.876727 -0.480988 -0.000000
    outer loop
      vertex -0.012557 -0.007250 0.873000
      vertex -0.012862 -0.006695 0.438000
      vertex -0.012557 -0.007250 0.438000
    endloop
  endfacet
  facet normal -0.854912 -0.518773 0.000000
    outer loop
      vertex -0.012229 -0.007791 0.873000
      vertex -0.012557 -0.007250 0.873000
      vertex -0.012557 -0.007250 0.438000
    endloop
  endfacet
  facet normal -0.854912 -0.518773 -0.000000
    outer loop
      vertex -0.012229 -0.007791 0.873000
      vertex -0.012557 -0.007250 0.438000
      vertex -0.012229 -0.007791 0.438000
    endloop
  endfacet
  facet normal -0.831469 -0.555571 -0.000000
    outer loop
      vertex -0.011878 -0.008317 0.873000
      vertex -0.012229 -0.007791 0.438000
      vertex -0.011878 -0.008317 0.438000
    endloop
  endfacet
  facet normal -0.831469 -0.555571 0.000000
    outer loop
      vertex -0.011878 -0.008317 0.873000
      vertex -0.012229 -0.007791 0.873000
      vertex -0.012229 -0.007791 0.438000
    endloop
  endfacet
  facet normal -0.806445 -0.591309 -0.000000
    outer loop
      vertex -0.011504 -0.008827 0.873000
      vertex -0.011878 -0.008317 0.438000
      vertex -0.011504 -0.008827 0.438000
    endloop
  endfacet
  facet normal -0.806445 -0.591309 0.000000
    outer loop
      vertex -0.011504 -0.008827 0.873000
      vertex -0.011878 -0.008317 0.873000
      vertex -0.011878 -0.008317 0.438000
    endloop
  endfacet
  facet normal -0.779884 -0.625924 -0.000000
    outer loop
      vertex -0.011108 -0.009320 0.873000
      vertex -0.011504 -0.008827 0.438000
      vertex -0.011108 -0.009320 0.438000
    endloop
  endfacet
  facet normal -0.779884 -0.625924 0.000000
    outer loop
      vertex -0.011108 -0.009320 0.873000
      vertex -0.011504 -0.008827 0.873000
      vertex -0.011504 -0.008827 0.438000
    endloop
  endfacet
  facet normal -0.751840 -0.659345 -0.000000
    outer loop
      vertex -0.010691 -0.009796 0.873000
      vertex -0.011108 -0.009320 0.438000
      vertex -0.010691 -0.009796 0.438000
    endloop
  endfacet
  facet normal -0.751840 -0.659345 0.000000
    outer loop
      vertex -0.010691 -0.009796 0.873000
      vertex -0.011108 -0.009320 0.873000
      vertex -0.011108 -0.009320 0.438000
    endloop
  endfacet
  facet normal -0.722364 -0.691513 -0.000000
    outer loop
      vertex -0.010253 -0.010253 0.873000
      vertex -0.010691 -0.009796 0.438000
      vertex -0.010253 -0.010253 0.438000
    endloop
  endfacet
  facet normal -0.722364 -0.691513 0.000000
    outer loop
      vertex -0.010253 -0.010253 0.873000
      vertex -0.010691 -0.009796 0.873000
      vertex -0.010691 -0.009796 0.438000
    endloop
  endfacet
  facet normal -0.691513 -0.722364 0.000000
    outer loop
      vertex -0.010253 -0.010253 0.438000
      vertex -0.009796 -0.010691 0.438000
      vertex -0.009796 -0.010691 0.873000
    endloop
  endfacet
  facet normal -0.691513 -0.722364 0.000000
    outer loop
      vertex -0.010253 -0.010253 0.438000
      vertex -0.009796 -0.010691 0.873000
      vertex -0.010253 -0.010253 0.873000
    endloop
  endfacet
  facet normal -0.659345 -0.751840 0.000000
    outer loop
      vertex -0.009796 -0.010691 0.438000
      vertex -0.009320 -0.011108 0.438000
      vertex -0.009320 -0.011108 0.873000
    endloop
  endfacet
  facet normal -0.659345 -0.751840 0.000000
    outer loop
      vertex -0.009796 -0.010691 0.438000
      vertex -0.009320 -0.011108 0.873000
      vertex -0.009796 -0.010691 0.873000
    endloop
  endfacet
  facet normal -0.625924 -0.779884 0.000000
    outer loop
      vertex -0.009320 -0.011108 0.438000
      vertex -0.008827 -0.011504 0.438000
      vertex -0.008827 -0.011504 0.873000
    endloop
  endfacet
  facet normal -0.625924 -0.779884 0.000000
    outer loop
      vertex -0.009320 -0.011108 0.438000
      vertex -0.008827 -0.011504 0.873000
      vertex -0.009320 -0.011108 0.873000
    endloop
  endfacet
  facet normal -0.591309 -0.806445 0.000000
    outer loop
      vertex -0.008827 -0.011504 0.438000
      vertex -0.008317 -0.011878 0.438000
      vertex -0.008317 -0.011878 0.873000
    endloop
  endfacet
  facet normal -0.591309 -0.806445 0.000000
    outer loop
      vertex -0.008827 -0.011504 0.438000
      vertex -0.008317 -0.011878 0.873000
      vertex -0.008827 -0.011504 0.873000
    endloop
  endfacet
  facet normal -0.555571 -0.831469 0.000000
    outer loop
      vertex -0.008317 -0.011878 0.438000
      vertex -0.007791 -0.012229 0.438000
      vertex -0.007791 -0.012229 0.873000
    endloop
  endfacet
  facet normal -0.555571 -0.831469 0.000000
    outer loop
      vertex -0.008317 -0.011878 0.438000
      vertex -0.007791 -0.012229 0.873000
      vertex -0.008317 -0.011878 0.873000
    endloop
  endfacet
  facet normal -0.518773 -0.854912 0.000000
    outer loop
      vertex -0.007791 -0.012229 0.438000
      vertex -0.007250 -0.012557 0.438000
      vertex -0.007250 -0.012557 0.873000
    endloop
  endfacet
  facet normal -0.518773 -0.854912 0.000000
    outer loop
      vertex -0.007791 -0.012229 0.438000
      vertex -0.007250 -0.012557 0.873000
      vertex -0.007791 -0.012229 0.873000
    endloop
  endfacet
  facet normal -0.480988 -0.876727 0.000000
    outer loop
      vertex -0.007250 -0.012557 0.438000
      vertex -0.006695 -0.012862 0.438000
      vertex -0.006695 -0.012862 0.873000
    endloop
  endfacet
  facet normal -0.480988 -0.876727 0.000000
    outer loop
      vertex -0.007250 -0.012557 0.438000
      vertex -0.006695 -0.012862 0.873000
      vertex -0.007250 -0.012557 0.873000
    endloop
  endfacet
  facet normal -0.442288 -0.896873 0.000000
    outer loop
      vertex -0.006695 -0.012862 0.438000
      vertex -0.006128 -0.013141 0.438000
      vertex -0.006128 -0.013141 0.873000
    endloop
  endfacet
  facet normal -0.442288 -0.896873 0.000000
    outer loop
      vertex -0.006695 -0.012862 0.438000
      vertex -0.006128 -0.013141 0.873000
      vertex -0.006695 -0.012862 0.873000
    endloop
  endfacet
  facet normal -0.402747 -0.915312 0.000000
    outer loop
      vertex -0.006128 -0.013141 0.438000
      vertex -0.005549 -0.013396 0.438000
      vertex -0.005549 -0.013396 0.873000
    endloop
  endfacet
  facet normal -0.402747 -0.915312 0.000000
    outer loop
      vertex -0.006128 -0.013141 0.438000
      vertex -0.005549 -0.013396 0.873000
      vertex -0.006128 -0.013141 0.873000
    endloop
  endfacet
  facet normal -0.362438 -0.932008 0.000000
    outer loop
      vertex -0.005549 -0.013396 0.438000
      vertex -0.004959 -0.013626 0.438000
      vertex -0.004959 -0.013626 0.873000
    endloop
  endfacet
  facet normal -0.362438 -0.932008 0.000000
    outer loop
      vertex -0.005549 -0.013396 0.438000
      vertex -0.004959 -0.013626 0.873000
      vertex -0.005549 -0.013396 0.873000
    endloop
  endfacet
  facet normal -0.321440 -0.946930 0.000000
    outer loop
      vertex -0.004959 -0.013626 0.438000
      vertex -0.004360 -0.013829 0.438000
      vertex -0.004360 -0.013829 0.873000
    endloop
  endfacet
  facet normal -0.321440 -0.946930 0.000000
    outer loop
      vertex -0.004959 -0.013626 0.438000
      vertex -0.004360 -0.013829 0.873000
      vertex -0.004959 -0.013626 0.873000
    endloop
  endfacet
  facet normal -0.279829 -0.960050 0.000000
    outer loop
      vertex -0.004360 -0.013829 0.438000
      vertex -0.003753 -0.014006 0.438000
      vertex -0.003753 -0.014006 0.873000
    endloop
  endfacet
  facet normal -0.279829 -0.960050 0.000000
    outer loop
      vertex -0.004360 -0.013829 0.438000
      vertex -0.003753 -0.014006 0.873000
      vertex -0.004360 -0.013829 0.873000
    endloop
  endfacet
  facet normal -0.237686 -0.971342 0.000000
    outer loop
      vertex -0.003753 -0.014006 0.438000
      vertex -0.003138 -0.014156 0.873000
      vertex -0.003753 -0.014006 0.873000
    endloop
  endfacet
  facet normal -0.237686 -0.971342 0.000000
    outer loop
      vertex -0.003753 -0.014006 0.438000
      vertex -0.003138 -0.014156 0.438000
      vertex -0.003138 -0.014156 0.873000
    endloop
  endfacet
  facet normal -0.195090 -0.980785 0.000000
    outer loop
      vertex -0.003138 -0.014156 0.438000
      vertex -0.002518 -0.014280 0.873000
      vertex -0.003138 -0.014156 0.873000
    endloop
  endfacet
  facet normal -0.195090 -0.980785 0.000000
    outer loop
      vertex -0.003138 -0.014156 0.438000
      vertex -0.002518 -0.014280 0.438000
      vertex -0.002518 -0.014280 0.873000
    endloop
  endfacet
  facet normal -0.152124 -0.988362 0.000000
    outer loop
      vertex -0.002518 -0.014280 0.438000
      vertex -0.001893 -0.014376 0.873000
      vertex -0.002518 -0.014280 0.873000
    endloop
  endfacet
  facet normal -0.152124 -0.988362 0.000000
    outer loop
      vertex -0.002518 -0.014280 0.438000
      vertex -0.001893 -0.014376 0.438000
      vertex -0.001893 -0.014376 0.873000
    endloop
  endfacet
  facet normal -0.108868 -0.994056 0.000000
    outer loop
      vertex -0.001893 -0.014376 0.438000
      vertex -0.001264 -0.014445 0.873000
      vertex -0.001893 -0.014376 0.873000
    endloop
  endfacet
  facet normal -0.108868 -0.994056 0.000000
    outer loop
      vertex -0.001893 -0.014376 0.438000
      vertex -0.001264 -0.014445 0.438000
      vertex -0.001264 -0.014445 0.873000
    endloop
  endfacet
  facet normal -0.065403 -0.997859 0.000000
    outer loop
      vertex -0.001264 -0.014445 0.438000
      vertex -0.000632 -0.014486 0.438000
      vertex -0.000632 -0.014486 0.873000
    endloop
  endfacet
  facet normal -0.065403 -0.997859 0.000000
    outer loop
      vertex -0.001264 -0.014445 0.438000
      vertex -0.000632 -0.014486 0.873000
      vertex -0.001264 -0.014445 0.873000
    endloop
  endfacet
  facet normal -0.021814 -0.999762 0.000000
    outer loop
      vertex -0.000632 -0.014486 0.438000
      vertex -0.000000 -0.014500 0.873000
      vertex -0.000632 -0.014486 0.873000
    endloop
  endfacet
  facet normal -0.021814 -0.999762 0.000000
    outer loop
      vertex -0.000632 -0.014486 0.438000
      vertex -0.000000 -0.014500 0.438000
      vertex -0.000000 -0.014500 0.873000
    endloop
  endfacet
  facet normal 0.021814 -0.999762 0.000000
    outer loop
      vertex -0.000000 -0.014500 0.438000
      vertex 0.000632 -0.014486 0.873000
      vertex -0.000000 -0.014500 0.873000
    endloop
  endfacet
  facet normal 0.021814 -0.999762 0.000000
    outer loop
      vertex -0.000000 -0.014500 0.438000
      vertex 0.000632 -0.014486 0.438000
      vertex 0.000632 -0.014486 0.873000
    endloop
  endfacet
  facet normal 0.065403 -0.997859 0.000000
    outer loop
      vertex 0.000632 -0.014486 0.438000
      vertex 0.001264 -0.014445 0.438000
      vertex 0.001264 -0.014445 0.873000
    endloop
  endfacet
  facet normal 0.065403 -0.997859 0.000000
    outer loop
      vertex 0.000632 -0.014486 0.438000
      vertex 0.001264 -0.014445 0.873000
      vertex 0.000632 -0.014486 0.873000
    endloop
  endfacet
  facet normal 0.108868 -0.994056 0.000000
    outer loop
      vertex 0.001264 -0.014445 0.438000
      vertex 0.001893 -0.014376 0.873000
      vertex 0.001264 -0.014445 0.873000
    endloop
  endfacet
  facet normal 0.108868 -0.994056 0.000000
    outer loop
      vertex 0.001264 -0.014445 0.438000
      vertex 0.001893 -0.014376 0.438000
      vertex 0.001893 -0.014376 0.873000
    endloop
  endfacet
  facet normal 0.152124 -0.988362 0.000000
    outer loop
      vertex 0.001893 -0.014376 0.438000
      vertex 0.002518 -0.014280 0.438000
      vertex 0.002518 -0.014280 0.873000
    endloop
  endfacet
  facet normal 0.152124 -0.988362 0.000000
    outer loop
      vertex 0.001893 -0.014376 0.438000
      vertex 0.002518 -0.014280 0.873000
      vertex 0.001893 -0.014376 0.873000
    endloop
  endfacet
  facet normal 0.195090 -0.980785 0.000000
    outer loop
      vertex 0.002518 -0.014280 0.438000
      vertex 0.003138 -0.014156 0.438000
      vertex 0.003138 -0.014156 0.873000
    endloop
  endfacet
  facet normal 0.195090 -0.980785 0.000000
    outer loop
      vertex 0.002518 -0.014280 0.438000
      vertex 0.003138 -0.014156 0.873000
      vertex 0.002518 -0.014280 0.873000
    endloop
  endfacet
  facet normal 0.237686 -0.971342 0.000000
    outer loop
      vertex 0.003138 -0.014156 0.438000
      vertex 0.003753 -0.014006 0.873000
      vertex 0.003138 -0.014156 0.873000
    endloop
  endfacet
  facet normal 0.237686 -0.971342 0.000000
    outer loop
      vertex 0.003138 -0.014156 0.438000
      vertex 0.003753 -0.014006 0.438000
      vertex 0.003753 -0.014006 0.873000
    endloop
  endfacet
  facet normal 0.279829 -0.960050 0.000000
    outer loop
      vertex 0.003753 -0.014006 0.438000
      vertex 0.004360 -0.013829 0.438000
      vertex 0.004360 -0.013829 0.873000
    endloop
  endfacet
  facet normal 0.279829 -0.960050 0.000000
    outer loop
      vertex 0.003753 -0.014006 0.438000
      vertex 0.004360 -0.013829 0.873000
      vertex 0.003753 -0.014006 0.873000
    endloop
  endfacet
  facet normal 0.321440 -0.946930 0.000000
    outer loop
      vertex 0.004360 -0.013829 0.438000
      vertex 0.004959 -0.013626 0.873000
      vertex 0.004360 -0.013829 0.873000
    endloop
  endfacet
  facet normal 0.321440 -0.946930 0.000000
    outer loop
      vertex 0.004360 -0.013829 0.438000
      vertex 0.004959 -0.013626 0.438000
      vertex 0.004959 -0.013626 0.873000
    endloop
  endfacet
  facet normal 0.362438 -0.932008 0.000000
    outer loop
      vertex 0.004959 -0.013626 0.438000
      vertex 0.005549 -0.013396 0.438000
      vertex 0.005549 -0.013396 0.873000
    endloop
  endfacet
  facet normal 0.362438 -0.932008 0.000000
    outer loop
      vertex 0.004959 -0.013626 0.438000
      vertex 0.005549 -0.013396 0.873000
      vertex 0.004959 -0.013626 0.873000
    endloop
  endfacet
  facet normal 0.402747 -0.915312 0.000000
    outer loop
      vertex 0.005549 -0.013396 0.438000
      vertex 0.006128 -0.013141 0.438000
      vertex 0.006128 -0.013141 0.873000
    endloop
  endfacet
  facet normal 0.402747 -0.915312 0.000000
    outer loop
      vertex 0.005549 -0.013396 0.438000
      vertex 0.006128 -0.013141 0.873000
      vertex 0.005549 -0.013396 0.873000
    endloop
  endfacet
  facet normal 0.442288 -0.896873 0.000000
    outer loop
      vertex 0.006128 -0.013141 0.438000
      vertex 0.006695 -0.012862 0.873000
      vertex 0.006128 -0.013141 0.873000
    endloop
  endfacet
  facet normal 0.442288 -0.896873 0.000000
    outer loop
      vertex 0.006128 -0.013141 0.438000
      vertex 0.006695 -0.012862 0.438000
      vertex 0.006695 -0.012862 0.873000
    endloop
  endfacet
  facet normal 0.480988 -0.876727 0.000000
    outer loop
      vertex 0.006695 -0.012862 0.438000
      vertex 0.007250 -0.012557 0.438000
      vertex 0.007250 -0.012557 0.873000
    endloop
  endfacet
  facet normal 0.480988 -0.876727 0.000000
    outer loop
      vertex 0.006695 -0.012862 0.438000
      vertex 0.007250 -0.012557 0.873000
      vertex 0.006695 -0.012862 0.873000
    endloop
  endfacet
  facet normal 0.518773 -0.854912 0.000000
    outer loop
      vertex 0.007250 -0.012557 0.438000
      vertex 0.007791 -0.012229 0.438000
      vertex 0.007791 -0.012229 0.873000
    endloop
  endfacet
  facet normal 0.518773 -0.854912 0.000000
    outer loop
      vertex 0.007250 -0.012557 0.438000
      vertex 0.007791 -0.012229 0.873000
      vertex 0.007250 -0.012557 0.873000
    endloop
  endfacet
  facet normal 0.555571 -0.831469 0.000000
    outer loop
      vertex 0.007791 -0.012229 0.438000
      vertex 0.008317 -0.011878 0.438000
      vertex 0.008317 -0.011878 0.873000
    endloop
  endfacet
  facet normal 0.555571 -0.831469 0.000000
    outer loop
      vertex 0.007791 -0.012229 0.438000
      vertex 0.008317 -0.011878 0.873000
      vertex 0.007791 -0.012229 0.873000
    endloop
  endfacet
  facet normal 0.591309 -0.806445 0.000000
    outer loop
      vertex 0.008317 -0.011878 0.438000
      vertex 0.008827 -0.011504 0.438000
      vertex 0.008827 -0.011504 0.873000
    endloop
  endfacet
  facet normal 0.591309 -0.806445 0.000000
    outer loop
      vertex 0.008317 -0.011878 0.438000
      vertex 0.008827 -0.011504 0.873000
      vertex 0.008317 -0.011878 0.873000
    endloop
  endfacet
  facet normal 0.625924 -0.779884 0.000000
    outer loop
      vertex 0.008827 -0.011504 0.438000
      vertex 0.009320 -0.011108 0.438000
      vertex 0.009320 -0.011108 0.873000
    endloop
  endfacet
  facet normal 0.625924 -0.779884 0.000000
    outer loop
      vertex 0.008827 -0.011504 0.438000
      vertex 0.009320 -0.011108 0.873000
      vertex 0.008827 -0.011504 0.873000
    endloop
  endfacet
  facet normal 0.659345 -0.751840 0.000000
    outer loop
      vertex 0.009320 -0.011108 0.438000
      vertex 0.009796 -0.010691 0.438000
      vertex 0.009796 -0.010691 0.873000
    endloop
  endfacet
  facet normal 0.659345 -0.751840 0.000000
    outer loop
      vertex 0.009320 -0.011108 0.438000
      vertex 0.009796 -0.010691 0.873000
      vertex 0.009320 -0.011108 0.873000
    endloop
  endfacet
  facet normal 0.691513 -0.722364 0.000000
    outer loop
      vertex 0.009796 -0.010691 0.438000
      vertex 0.010253 -0.010253 0.438000
      vertex 0.010253 -0.010253 0.873000
    endloop
  endfacet
  facet normal 0.691513 -0.722364 0.000000
    outer loop
      vertex 0.009796 -0.010691 0.438000
      vertex 0.010253 -0.010253 0.873000
      vertex 0.009796 -0.010691 0.873000
    endloop
  endfacet
  facet normal 0.722364 -0.691513 0.000000
    outer loop
      vertex 0.010691 -0.009796 0.873000
      vertex 0.010253 -0.010253 0.438000
      vertex 0.010691 -0.009796 0.438000
    endloop
  endfacet
  facet normal 0.722364 -0.691513 0.000000
    outer loop
      vertex 0.010691 -0.009796 0.873000
      vertex 0.010253 -0.010253 0.873000
      vertex 0.010253 -0.010253 0.438000
    endloop
  endfacet
  facet normal 0.751840 -0.659345 0.000000
    outer loop
      vertex 0.011108 -0.009320 0.873000
      vertex 0.010691 -0.009796 0.873000
      vertex 0.010691 -0.009796 0.438000
    endloop
  endfacet
  facet normal 0.751840 -0.659345 0.000000
    outer loop
      vertex 0.011108 -0.009320 0.873000
      vertex 0.010691 -0.009796 0.438000
      vertex 0.011108 -0.009320 0.438000
    endloop
  endfacet
  facet normal 0.779884 -0.625924 0.000000
    outer loop
      vertex 0.011504 -0.008827 0.873000
      vertex 0.011108 -0.009320 0.873000
      vertex 0.011108 -0.009320 0.438000
    endloop
  endfacet
  facet normal 0.779884 -0.625924 0.000000
    outer loop
      vertex 0.011504 -0.008827 0.873000
      vertex 0.011108 -0.009320 0.438000
      vertex 0.011504 -0.008827 0.438000
    endloop
  endfacet
  facet normal 0.806445 -0.591309 0.000000
    outer loop
      vertex 0.011878 -0.008317 0.873000
      vertex 0.011504 -0.008827 0.873000
      vertex 0.011504 -0.008827 0.438000
    endloop
  endfacet
  facet normal 0.806445 -0.591309 0.000000
    outer loop
      vertex 0.011878 -0.008317 0.873000
      vertex 0.011504 -0.008827 0.438000
      vertex 0.011878 -0.008317 0.438000
    endloop
  endfacet
  facet normal 0.831469 -0.555571 0.000000
    outer loop
      vertex 0.012229 -0.007791 0.873000
      vertex 0.011878 -0.008317 0.873000
      vertex 0.011878 -0.008317 0.438000
    endloop
  endfacet
  facet normal 0.831469 -0.555571 0.000000
    outer loop
      vertex 0.012229 -0.007791 0.873000
      vertex 0.011878 -0.008317 0.438000
      vertex 0.012229 -0.007791 0.438000
    endloop
  endfacet
  facet normal 0.854912 -0.518773 0.000000
    outer loop
      vertex 0.012557 -0.007250 0.873000
      vertex 0.012229 -0.007791 0.873000
      vertex 0.012229 -0.007791 0.438000
    endloop
  endfacet
  facet normal 0.854912 -0.518773 0.000000
    outer loop
      vertex 0.012557 -0.007250 0.873000
      vertex 0.012229 -0.007791 0.438000
      vertex 0.012557 -0.007250 0.438000
    endloop
  endfacet
  facet normal 0.876727 -0.480988 0.000000
    outer loop
      vertex 0.012862 -0.006695 0.873000
      vertex 0.012557 -0.007250 0.873000
      vertex 0.012557 -0.007250 0.438000
    endloop
  endfacet
  facet normal 0.876727 -0.480988 0.000000
    outer loop
      vertex 0.012862 -0.006695 0.873000
      vertex 0.012557 -0.007250 0.438000
      vertex 0.012862 -0.006695 0.438000
    endloop
  endfacet
  facet normal 0.896873 -0.442288 0.000000
    outer loop
      vertex 0.013141 -0.006128 0.873000
      vertex 0.012862 -0.006695 0.873000
      vertex 0.012862 -0.006695 0.438000
    endloop
  endfacet
  facet normal 0.896873 -0.442288 0.000000
    outer loop
      vertex 0.013141 -0.006128 0.873000
      vertex 0.012862 -0.006695 0.438000
      vertex 0.013141 -0.006128 0.438000
    endloop
  endfacet
  facet normal 0.915312 -0.402747 0.000000
    outer loop
      vertex 0.013396 -0.005549 0.873000
      vertex 0.013141 -0.006128 0.873000
      vertex 0.013141 -0.006128 0.438000
    endloop
  endfacet
  facet normal 0.915312 -0.402747 0.000000
    outer loop
      vertex 0.013396 -0.005549 0.873000
      vertex 0.013141 -0.006128 0.438000
      vertex 0.013396 -0.005549 0.438000
    endloop
  endfacet
  facet normal 0.932008 -0.362438 0.000000
    outer loop
      vertex 0.013626 -0.004959 0.873000
      vertex 0.013396 -0.005549 0.873000
      vertex 0.013396 -0.005549 0.438000
    endloop
  endfacet
  facet normal 0.932008 -0.362438 0.000000
    outer loop
      vertex 0.013626 -0.004959 0.873000
      vertex 0.013396 -0.005549 0.438000
      vertex 0.013626 -0.004959 0.438000
    endloop
  endfacet
  facet normal 0.946930 -0.321440 0.000000
    outer loop
      vertex 0.013829 -0.004360 0.873000
      vertex 0.013626 -0.004959 0.873000
      vertex 0.013626 -0.004959 0.438000
    endloop
  endfacet
  facet normal 0.946930 -0.321440 0.000000
    outer loop
      vertex 0.013829 -0.004360 0.873000
      vertex 0.013626 -0.004959 0.438000
      vertex 0.013829 -0.004360 0.438000
    endloop
  endfacet
  facet normal 0.960050 -0.279829 0.000000
    outer loop
      vertex 0.014006 -0.003753 0.873000
      vertex 0.013829 -0.004360 0.873000
      vertex 0.013829 -0.004360 0.438000
    endloop
  endfacet
  facet normal 0.960050 -0.279829 0.000000
    outer loop
      vertex 0.014006 -0.003753 0.873000
      vertex 0.013829 -0.004360 0.438000
      vertex 0.014006 -0.003753 0.438000
    endloop
  endfacet
  facet normal 0.971342 -0.237686 0.000000
    outer loop
      vertex 0.014156 -0.003138 0.873000
      vertex 0.014006 -0.003753 0.873000
      vertex 0.014006 -0.003753 0.438000
    endloop
  endfacet
  facet normal 0.971342 -0.237686 0.000000
    outer loop
      vertex 0.014156 -0.003138 0.873000
      vertex 0.014006 -0.003753 0.438000
      vertex 0.014156 -0.003138 0.438000
    endloop
  endfacet
  facet normal 0.980785 -0.195090 0.000000
    outer loop
      vertex 0.014280 -0.002518 0.873000
      vertex 0.014156 -0.003138 0.873000
      vertex 0.014156 -0.003138 0.438000
    endloop
  endfacet
  facet normal 0.980785 -0.195090 0.000000
    outer loop
      vertex 0.014280 -0.002518 0.873000
      vertex 0.014156 -0.003138 0.438000
      vertex 0.014280 -0.002518 0.438000
    endloop
  endfacet
  facet normal 0.988362 -0.152124 0.000000
    outer loop
      vertex 0.014376 -0.001893 0.873000
      vertex 0.014280 -0.002518 0.873000
      vertex 0.014280 -0.002518 0.438000
    endloop
  endfacet
  facet normal 0.988362 -0.152124 0.000000
    outer loop
      vertex 0.014376 -0.001893 0.873000
      vertex 0.014280 -0.002518 0.438000
      vertex 0.014376 -0.001893 0.438000
    endloop
  endfacet
  facet normal 0.994056 -0.108868 0.000000
    outer loop
      vertex 0.014445 -0.001264 0.873000
      vertex 0.014376 -0.001893 0.873000
      vertex 0.014376 -0.001893 0.438000
    endloop
  endfacet
  facet normal 0.994056 -0.108868 0.000000
    outer loop
      vertex 0.014445 -0.001264 0.873000
      vertex 0.014376 -0.001893 0.438000
      vertex 0.014445 -0.001264 0.438000
    endloop
  endfacet
  facet normal 0.997859 -0.065403 0.000000
    outer loop
      vertex 0.014486 -0.000632 0.873000
      vertex 0.014445 -0.001264 0.873000
      vertex 0.014445 -0.001264 0.438000
    endloop
  endfacet
  facet normal 0.997859 -0.065403 0.000000
    outer loop
      vertex 0.014486 -0.000632 0.873000
      vertex 0.014445 -0.001264 0.438000
      vertex 0.014486 -0.000632 0.438000
    endloop
  endfacet
  facet normal 0.999762 -0.021814 0.000000
    outer loop
      vertex 0.014500 -0.000000 0.873000
      vertex 0.014486 -0.000632 0.873000
      vertex 0.014486 -0.000632 0.438000
    endloop
  endfacet
  facet normal 0.999762 -0.021814 0.000000
    outer loop
      vertex 0.014500 -0.000000 0.873000
      vertex 0.014486 -0.000632 0.438000
      vertex 0.014500 -0.000000 0.438000
    endloop
  endfacet
endsolid Mesh
